<?xml version="1.0" encoding="UTF-8"?>
<svg xmlns="http://www.w3.org/2000/svg" xmlns:xlink="http://www.w3.org/1999/xlink" width="3750" height="2250" viewBox="0 0 3750 2250">

<path fill-rule="nonzero" fill="rgb(26.660156%, 66.601562%, 0%)" fill-opacity="1" d="M 777.554688 1152.160156 C 739.851562 1152.070312 677 1159.621094 630.375 1204.359375 C 584.90625 1247.980469 573.625 1304.097656 605.824219 1352.59375 C 633.722656 1296.292969 671.023438 1265.25 671.074219 1265.207031 C 579.40625 1353.976562 571.402344 1595.109375 571.402344 1595.109375 L 597.125 1595.109375 C 593.910156 1491.550781 607.339844 1415.847656 623.605469 1363.265625 C 707.539062 1393.582031 751.304688 1303.214844 761.40625 1242.808594 C 769.328125 1195.410156 810.152344 1154.351562 810.152344 1154.351562 C 810.152344 1154.351562 797.304688 1152.199219 777.554688 1152.160156 Z M 671.082031 1265.199219 C 668.886719 1268.019531 666.742188 1270.855469 664.628906 1273.699219 C 668.605469 1267.988281 671.074219 1265.210938 671.078125 1265.203125 L 671.082031 1265.195312 "/>
<path fill-rule="nonzero" fill="rgb(50.193787%, 19.993591%, 0%)" fill-opacity="1" d="M 603.714844 1468.390625 C 568.140625 1468.421875 535.046875 1486.609375 515.957031 1516.628906 C 515.785156 1516.5625 515.613281 1516.503906 515.441406 1516.441406 C 506.085938 1513.1875 496.25 1511.523438 486.34375 1511.523438 C 437.429688 1511.523438 397.777344 1551.179688 397.777344 1600.09375 C 397.789062 1604.085938 398.070312 1608.074219 398.621094 1612.03125 C 366.378906 1623.113281 344.105469 1652.683594 342.351562 1686.738281 L 861.734375 1686.738281 C 857.859375 1648.570312 832.296875 1616.070312 796.117188 1603.316406 C 797.023438 1598.625 797.492188 1593.859375 797.507812 1589.078125 C 797.507812 1546.929688 763.339844 1512.761719 721.191406 1512.761719 C 711.394531 1512.769531 701.691406 1514.664062 692.613281 1518.339844 C 673.71875 1487.324219 640.03125 1468.394531 603.714844 1468.394531 "/>
<path fill-rule="nonzero" fill="rgb(26.660156%, 66.601562%, 0%)" fill-opacity="1" d="M 1606.21875 981.230469 C 1559.960938 981.121094 1482.851562 990.390625 1425.648438 1045.28125 C 1369.859375 1098.800781 1356.019531 1167.648438 1395.519531 1227.148438 C 1429.78125 1158.03125 1475.589844 1119.921875 1475.589844 1119.921875 C 1472.898438 1123.378906 1470.269531 1126.859375 1467.679688 1130.339844 C 1472.558594 1123.339844 1475.589844 1119.921875 1475.589844 1119.921875 C 1419.761719 1173.980469 1389.230469 1274.082031 1372.628906 1361.214844 C 1358.910156 1336.871094 1330.808594 1298.050781 1281.898438 1274.160156 C 1281.898438 1274.160156 1316.308594 1281.152344 1346.160156 1311.757812 C 1360.519531 1266.355469 1333.980469 1191.929688 1223.351562 1192.03125 C 1203.121094 1192.050781 1180.070312 1194.558594 1153.960938 1200.191406 C 1153.960938 1200.191406 1177.640625 1209.621094 1202.359375 1259.960938 C 1227.539062 1311.246094 1275.699219 1366.597656 1335.21875 1324.804688 C 1347.691406 1342.316406 1359.039062 1363.625 1367.738281 1388.820312 C 1355.289062 1464.707031 1353.289062 1524.691406 1353.289062 1524.691406 L 1384.851562 1524.691406 C 1380.910156 1397.636719 1397.378906 1304.753906 1417.339844 1240.238281 C 1520.320312 1277.433594 1574.019531 1166.570312 1586.410156 1092.460938 C 1596.128906 1034.289062 1646.210938 983.921875 1646.210938 983.921875 C 1646.210938 983.921875 1630.449219 981.289062 1606.21875 981.230469 "/>
<path fill-rule="nonzero" fill="rgb(50.193787%, 19.993591%, 0%)" fill-opacity="1" d="M 1384.921875 1468.390625 C 1349.351562 1468.421875 1316.261719 1486.609375 1297.171875 1516.628906 C 1297 1516.5625 1296.820312 1516.503906 1296.648438 1516.441406 C 1287.300781 1513.1875 1277.460938 1511.523438 1267.550781 1511.523438 C 1218.640625 1511.523438 1178.988281 1551.179688 1178.988281 1600.09375 C 1179 1604.085938 1179.28125 1608.074219 1179.828125 1612.03125 C 1147.589844 1623.113281 1125.308594 1652.683594 1123.558594 1686.738281 L 1642.941406 1686.738281 C 1639.070312 1648.570312 1613.511719 1616.070312 1577.328125 1603.316406 C 1578.230469 1598.625 1578.699219 1593.859375 1578.71875 1589.078125 C 1578.71875 1546.929688 1544.550781 1512.761719 1502.398438 1512.761719 C 1492.601562 1512.769531 1482.898438 1514.664062 1473.820312 1518.339844 C 1454.929688 1487.324219 1421.238281 1468.394531 1384.921875 1468.394531 "/>
<path fill-rule="nonzero" fill="rgb(26.660156%, 66.601562%, 0%)" fill-opacity="1" d="M 2397.589844 827.648438 C 2351.339844 827.539062 2274.21875 836.808594 2217.019531 891.699219 C 2161.230469 945.21875 2147.390625 1014.070312 2186.898438 1073.570312 C 2221.148438 1004.449219 2266.960938 966.339844 2266.960938 966.339844 C 2214.109375 1017.96875 2183.46875 1117.960938 2165.699219 1218.601562 C 2149.449219 1188.960938 2114.710938 1139.28125 2052.839844 1109.058594 C 2052.851562 1109.058594 2095.078125 1117.640625 2131.71875 1155.210938 C 2149.339844 1099.480469 2116.769531 1008.121094 1980.960938 1008.238281 C 1956.128906 1008.261719 1927.839844 1011.339844 1895.78125 1018.261719 C 1895.78125 1018.261719 1924.851562 1029.828125 1955.199219 1091.628906 C 1986.109375 1154.578125 2045.21875 1222.519531 2118.289062 1171.21875 C 2134.390625 1193.839844 2148.980469 1221.628906 2159.859375 1254.703125 C 2139.921875 1389.535156 2141.308594 1515.207031 2141.308594 1515.207031 L 2172.871094 1515.207031 C 2170.960938 1471.1875 2170.589844 1430.230469 2171.449219 1392.203125 C 2184.75 1364.015625 2200.96875 1341.339844 2217.890625 1323.730469 C 2270.660156 1373.773438 2326.390625 1326.058594 2358.800781 1279.007812 C 2390.621094 1232.820312 2415.421875 1226.960938 2415.421875 1226.960938 C 2390.410156 1217.570312 2367.980469 1211.71875 2347.96875 1208.738281 C 2238.539062 1192.46875 2201.410156 1262.210938 2208.96875 1309.222656 C 2242.980469 1283.3125 2278.039062 1281.425781 2278.039062 1281.425781 C 2223 1298.917969 2188.640625 1336.476562 2172.570312 1358.195312 C 2177.769531 1238.738281 2195.230469 1150.519531 2213.75 1088.378906 C 2313.441406 1120.21875 2365.589844 1011.769531 2377.78125 938.878906 C 2387.5 880.710938 2437.589844 830.339844 2437.589844 830.339844 C 2437.589844 830.339844 2421.820312 827.710938 2397.589844 827.648438 "/>
<path fill-rule="nonzero" fill="rgb(50.193787%, 19.993591%, 0%)" fill-opacity="1" d="M 2171.089844 1468.390625 C 2135.519531 1468.421875 2102.421875 1486.609375 2083.328125 1516.628906 C 2083.160156 1516.5625 2082.988281 1516.503906 2082.820312 1516.441406 C 2073.460938 1513.1875 2063.628906 1511.523438 2053.71875 1511.523438 C 2004.808594 1511.523438 1965.148438 1551.179688 1965.148438 1600.09375 C 1965.160156 1604.085938 1965.449219 1608.074219 1966 1612.03125 C 1933.75 1623.113281 1911.480469 1652.683594 1909.730469 1686.738281 L 2429.109375 1686.738281 C 2425.230469 1648.570312 2399.671875 1616.070312 2363.488281 1603.316406 C 2364.398438 1598.625 2364.871094 1593.859375 2364.890625 1589.078125 C 2364.890625 1546.929688 2330.71875 1512.761719 2288.570312 1512.761719 C 2278.769531 1512.769531 2269.070312 1514.664062 2259.988281 1518.339844 C 2241.101562 1487.324219 2207.410156 1468.394531 2171.089844 1468.394531 "/>
<path fill-rule="nonzero" fill="rgb(26.660156%, 66.601562%, 0%)" fill-opacity="1" d="M 3357.691406 563.261719 C 3299.910156 563.121094 3203.578125 574.710938 3132.121094 643.269531 C 3062.429688 710.128906 3045.140625 796.128906 3094.488281 870.460938 C 3137.261719 784.148438 3194.460938 736.558594 3194.5 736.519531 C 3129.078125 801.789062 3090.308594 923.390625 3067.398438 1050.511719 C 3046.839844 1013.359375 3003.519531 952.160156 2927.03125 914.789062 C 2927.058594 914.789062 2979.789062 925.519531 3025.558594 972.441406 C 3047.570312 902.820312 3006.890625 788.699219 2837.238281 788.851562 C 2806.210938 788.878906 2770.878906 792.730469 2730.828125 801.371094 C 2730.828125 801.371094 2767.148438 815.820312 2805.050781 893.011719 C 2843.671875 971.648438 2917.511719 1056.53125 3008.789062 992.449219 C 3028.578125 1020.261719 3046.550781 1054.328125 3060.070312 1094.789062 C 3047.449219 1177.941406 3041.019531 1260.9375 3037.828125 1329.757812 C 3019.320312 1303.59375 2975.558594 1252.597656 2902.960938 1229.53125 C 2902.960938 1229.53125 2946.761719 1231.878906 2989.238281 1264.25 C 2998.679688 1205.519531 2952.300781 1118.398438 2815.601562 1138.730469 C 2790.601562 1142.449219 2762.589844 1149.761719 2731.339844 1161.488281 C 2731.339844 1161.488281 2762.328125 1168.808594 2802.070312 1226.511719 C 2842.558594 1285.28125 2912.171875 1344.890625 2978.101562 1282.371094 C 2999.328125 1304.472656 3019.679688 1332.960938 3036.339844 1368.394531 C 3033.851562 1445.339844 3035.308594 1496.988281 3035.308594 1496.988281 L 3081.441406 1498.105469 C 3076.71875 1410.265625 3076.671875 1330.703125 3079.839844 1258.996094 C 3095.53125 1228.148438 3114 1202.941406 3133.199219 1182.960938 C 3199.128906 1245.46875 3268.738281 1185.871094 3309.230469 1127.089844 C 3348.96875 1069.390625 3379.960938 1062.078125 3379.960938 1062.078125 C 3348.710938 1050.339844 3320.699219 1043.03125 3295.699219 1039.308594 C 3159 1018.980469 3112.621094 1106.109375 3122.058594 1164.828125 C 3164.539062 1132.46875 3208.339844 1130.109375 3208.339844 1130.109375 C 3145.191406 1150.179688 3103.871094 1191.371094 3081.988281 1218.980469 C 3090.980469 1077.101562 3112.640625 968.679688 3134.589844 890.910156 C 3254.859375 923.960938 3317.980469 791.648438 3332.941406 702.199219 C 3345.078125 629.550781 3407.648438 566.621094 3407.648438 566.621094 C 3407.648438 566.621094 3387.960938 563.339844 3357.691406 563.261719 "/>
<path fill-rule="nonzero" fill="rgb(50.193787%, 19.993591%, 0%)" fill-opacity="1" d="M 3073.648438 1468.390625 C 3038.070312 1468.421875 3004.980469 1486.609375 2985.890625 1516.628906 C 2985.71875 1516.5625 2985.550781 1516.503906 2985.378906 1516.441406 C 2976.019531 1513.1875 2966.179688 1511.523438 2956.28125 1511.523438 C 2907.359375 1511.523438 2867.710938 1551.179688 2867.710938 1600.09375 C 2867.71875 1604.085938 2868 1608.074219 2868.550781 1612.03125 C 2836.308594 1623.113281 2814.039062 1652.683594 2812.28125 1686.738281 L 3331.671875 1686.738281 C 3327.789062 1648.570312 3302.230469 1616.070312 3266.050781 1603.316406 C 3266.960938 1598.625 3267.421875 1593.859375 3267.441406 1589.078125 C 3267.441406 1546.929688 3233.269531 1512.761719 3191.121094 1512.761719 C 3181.328125 1512.769531 3171.621094 1514.664062 3162.539062 1518.339844 C 3143.648438 1487.324219 3109.960938 1468.394531 3073.648438 1468.394531 "/>
</svg>
